<?xml version="1.0" encoding="UTF-8" standalone="no"?>
<!-- Created with Inkscape (http://www.inkscape.org/) -->

<svg
   xmlns:dc="http://purl.org/dc/elements/1.1/"
   xmlns:cc="http://creativecommons.org/ns#"
   xmlns:rdf="http://www.w3.org/1999/02/22-rdf-syntax-ns#"
   xmlns:svg="http://www.w3.org/2000/svg"
   xmlns="http://www.w3.org/2000/svg"
   xmlns:sodipodi="http://sodipodi.sourceforge.net/DTD/sodipodi-0.dtd"
   xmlns:inkscape="http://www.inkscape.org/namespaces/inkscape"
   width="297mm"
   height="210mm"
   viewBox="0 0 1052.3622 744.09448"
   id="svg2"
   version="1.1"
   inkscape:version="0.92.3 (2405546, 2018-03-11)"
   sodipodi:docname="process-sketch-4.svg">
  <defs
     id="defs4">
    <marker
       inkscape:stockid="Arrow2Mend"
       orient="auto"
       refY="0.0"
       refX="0.0"
       id="Arrow2Mend"
       style="overflow:visible;"
       inkscape:isstock="true">
      <path
         id="path918"
         style="fill-rule:evenodd;stroke-width:0.625;stroke-linejoin:round;stroke:#000000;stroke-opacity:1;fill:#000000;fill-opacity:1"
         d="M 8.7185878,4.0337352 L -2.2072895,0.016013256 L 8.7185884,-4.0017078 C 6.9730900,-1.6296469 6.9831476,1.6157441 8.7185878,4.0337352 z "
         transform="scale(0.6) rotate(180) translate(0,0)" />
    </marker>
    <marker
       inkscape:stockid="Arrow1Send"
       orient="auto"
       refY="0.0"
       refX="0.0"
       id="Arrow1Send"
       style="overflow:visible;"
       inkscape:isstock="true">
      <path
         id="path906"
         d="M 0.0,0.0 L 5.0,-5.0 L -12.5,0.0 L 5.0,5.0 L 0.0,0.0 z "
         style="fill-rule:evenodd;stroke:#000000;stroke-width:1pt;stroke-opacity:1;fill:#000000;fill-opacity:1"
         transform="scale(0.2) rotate(180) translate(6,0)" />
    </marker>
    <marker
       inkscape:isstock="true"
       style="overflow:visible;"
       id="marker4706"
       refX="0.0"
       refY="0.0"
       orient="auto"
       inkscape:stockid="Arrow1Lend">
      <path
         transform="scale(0.8) rotate(180) translate(12.5,0)"
         style="fill-rule:evenodd;stroke:#000000;stroke-width:1pt;stroke-opacity:1;fill:#000000;fill-opacity:1"
         d="M 0.0,0.0 L 5.0,-5.0 L -12.5,0.0 L 5.0,5.0 L 0.0,0.0 z "
         id="path4708" />
    </marker>
    <marker
       inkscape:stockid="Arrow1Lstart"
       orient="auto"
       refY="0.0"
       refX="0.0"
       id="Arrow1Lstart"
       style="overflow:visible"
       inkscape:isstock="true">
      <path
         id="path4216"
         d="M 0.0,0.0 L 5.0,-5.0 L -12.5,0.0 L 5.0,5.0 L 0.0,0.0 z "
         style="fill-rule:evenodd;stroke:#000000;stroke-width:1pt;stroke-opacity:1;fill:#000000;fill-opacity:1"
         transform="scale(0.8) translate(12.5,0)" />
    </marker>
    <marker
       inkscape:stockid="Arrow1Lend"
       orient="auto"
       refY="0.0"
       refX="0.0"
       id="Arrow1Lend"
       style="overflow:visible;"
       inkscape:isstock="true"
       inkscape:collect="always">
      <path
         id="path4219"
         d="M 0.0,0.0 L 5.0,-5.0 L -12.5,0.0 L 5.0,5.0 L 0.0,0.0 z "
         style="fill-rule:evenodd;stroke:#000000;stroke-width:1pt;stroke-opacity:1;fill:#000000;fill-opacity:1"
         transform="scale(0.8) rotate(180) translate(12.5,0)" />
    </marker>
    <marker
       inkscape:stockid="Arrow1Lend"
       orient="auto"
       refY="0"
       refX="0"
       id="Arrow1Lend-7"
       style="overflow:visible"
       inkscape:isstock="true"
       inkscape:collect="always">
      <path
         inkscape:connector-curvature="0"
         id="path4219-0"
         d="M 0,0 5,-5 -12.5,0 5,5 0,0 Z"
         style="fill:#000000;fill-opacity:1;fill-rule:evenodd;stroke:#000000;stroke-width:1pt;stroke-opacity:1"
         transform="matrix(-0.8,0,0,-0.8,-10,0)" />
    </marker>
  </defs>
  <sodipodi:namedview
     id="base"
     pagecolor="#ffffff"
     bordercolor="#666666"
     borderopacity="1.0"
     inkscape:pageopacity="0.0"
     inkscape:pageshadow="2"
     inkscape:zoom="0.7"
     inkscape:cx="132.81301"
     inkscape:cy="405.71428"
     inkscape:document-units="px"
     inkscape:current-layer="layer1"
     showgrid="true"
     inkscape:window-width="1981"
     inkscape:window-height="1097"
     inkscape:window-x="67"
     inkscape:window-y="27"
     inkscape:window-maximized="1">
    <inkscape:grid
       type="xygrid"
       id="grid3336" />
  </sodipodi:namedview>
  <metadata
     id="metadata7">
    <rdf:RDF>
      <cc:Work
         rdf:about="">
        <dc:format>image/svg+xml</dc:format>
        <dc:type
           rdf:resource="http://purl.org/dc/dcmitype/StillImage" />
        <dc:title />
      </cc:Work>
    </rdf:RDF>
  </metadata>
  <g
     inkscape:label="Layer 1"
     inkscape:groupmode="layer"
     id="layer1"
     transform="translate(0,-308.26772)">
    <rect
       style="fill:none;fill-rule:evenodd;stroke:#000000;stroke-width:3;stroke-linecap:butt;stroke-linejoin:miter;stroke-miterlimit:4;stroke-dasharray:none;stroke-opacity:1"
       id="rect3338"
       width="160"
       height="100"
       x="14"
       y="532.36218" />
    <text
       xml:space="preserve"
       style="font-style:normal;font-weight:normal;line-height:0%;font-family:sans-serif;text-align:center;letter-spacing:0px;word-spacing:0px;text-anchor:middle;fill:#000000;fill-opacity:1;stroke:none;stroke-width:1px;stroke-linecap:butt;stroke-linejoin:miter;stroke-opacity:1"
       x="93.365227"
       y="572.36218"
       id="text4140"><tspan
         sodipodi:role="line"
         id="tspan4142"
         x="93.365227"
         y="572.36218"
         style="font-size:40px;line-height:1.25">RAW</tspan><tspan
         sodipodi:role="line"
         x="93.365227"
         y="622.36218"
         id="tspan4144"
         style="font-size:40px;line-height:1.25">DATA</tspan></text>
    <rect
       style="fill:#ffffff;fill-opacity:1;fill-rule:evenodd;stroke:#000000;stroke-width:4.27137136;stroke-linecap:butt;stroke-linejoin:miter;stroke-miterlimit:4;stroke-dasharray:none;stroke-opacity:1"
       id="rect3338-3"
       width="219.55287"
       height="147.73143"
       x="417.94714"
       y="510.88074" />
    <text
       xml:space="preserve"
       style="font-style:normal;font-weight:normal;line-height:0%;font-family:sans-serif;text-align:center;letter-spacing:0px;word-spacing:0px;text-anchor:middle;fill:#000000;fill-opacity:1;stroke:none;stroke-width:1px;stroke-linecap:butt;stroke-linejoin:miter;stroke-opacity:1"
       x="529.36523"
       y="552.95148"
       id="text4140-3"><tspan
         sodipodi:role="line"
         id="tspan4142-5"
         x="529.36523"
         y="552.95148"
         style="font-size:40px;line-height:1.25">TRACKING</tspan><tspan
         sodipodi:role="line"
         x="529.36523"
         y="602.95148"
         id="tspan4144-6"
         style="font-size:40px;line-height:1.25">DATA</tspan><tspan
         sodipodi:role="line"
         x="529.36523"
         y="652.95148"
         style="font-size:35.00000101px;line-height:1.25"
         id="tspan889">(x,y,t)</tspan><tspan
         sodipodi:role="line"
         x="529.36523"
         y="670.67804"
         style="font-size:40px;line-height:1.25"
         id="tspan887" /></text>
    <path
       style="fill:none;fill-rule:evenodd;stroke:#000000;stroke-width:2.1487987;stroke-linecap:butt;stroke-linejoin:miter;stroke-miterlimit:4;stroke-dasharray:none;stroke-opacity:1;marker-end:url(#Arrow1Lend)"
       d="m 180,586.3622 230.86679,0"
       id="path4210"
       inkscape:connector-curvature="0" />
    <text
       xml:space="preserve"
       style="font-style:normal;font-weight:normal;line-height:0%;font-family:sans-serif;letter-spacing:0px;word-spacing:0px;fill:#000000;fill-opacity:1;stroke:none;stroke-width:1px;stroke-linecap:butt;stroke-linejoin:miter;stroke-opacity:1"
       x="186"
       y="564.36218"
       id="text4534"><tspan
         sodipodi:role="line"
         id="tspan4536"
         x="186"
         y="564.36218"
         style="font-size:30px;line-height:1.25">pre-processing</tspan></text>
    <path
       style="fill:none;stroke-width:2;stroke-miterlimit:4;stroke-dasharray:none"
       id="path4664"
       d="m 661.19628,375.21166 c -0.8013,2.77012 -1.85151,5.45558 -2.90674,8.13605 -0.51944,1.36311 -1.09523,2.70313 -1.67289,4.04217 0,0 -19.11665,8.72233 -19.11665,8.72233 v 0 c 0.62829,-1.27491 1.12496,-2.5853 1.71517,-3.87747 0.90183,-2.62637 2.11765,-5.116 2.9204,-7.78044 0,0 19.06071,-9.24264 19.06071,-9.24264 z"
       inkscape:connector-curvature="0" />
    <path
       style="fill:none;stroke-width:2;stroke-miterlimit:4;stroke-dasharray:none"
       id="path4666"
       d="m 649.32197,400.10212 c -0.18552,0.35989 -0.37105,0.71977 -0.55658,1.07966 0,0 -19.15784,8.81387 -19.15784,8.81387 l 0,0 c 0.12899,-0.38306 0.25797,-0.76611 0.38695,-1.14917 0,0 19.32747,-8.74436 19.32747,-8.74436 z"
       inkscape:connector-curvature="0" />
    <path
       style="fill:none;stroke-width:2;stroke-miterlimit:4;stroke-dasharray:none"
       id="path4668"
       d="m 601.80535,492.79963 c -2.34778,-2.64743 -4.40496,-5.53329 -6.39423,-8.45457 -3.6255,-5.28714 -7.08483,-10.68689 -10.60261,-16.04728 -6.30458,-9.56296 -12.88631,-18.95166 -19.72563,-28.13994 -8.1392,-10.05082 -15.95179,-20.36437 -24.23432,-30.29749 -7.90632,-9.26863 -16.05158,-18.33151 -24.00992,-27.55386 -3.32433,-3.77549 -5.26069,-6.064 -10.30499,-6.69957 -5.12012,-0.25262 -10.25492,-0.20727 -15.38102,-0.23563 -10.54337,-0.02 -21.08667,-0.0604 -31.63001,-0.0812 -10.41486,0.0278 -20.37693,1.13466 -30.56798,3.14212 -8.93058,1.65348 -17.3128,5.19417 -25.79803,8.30127 -8.92092,3.26104 -17.78087,6.77207 -26.39486,10.77995 -6.80136,3.18201 -19.19267,10.16537 11.31044,-6.73261 1.10616,-0.61278 -1.7527,1.22292 -2.98913,2.55328 -1.33418,2.083 -1.5616,4.68498 -2.056,7.07198 -0.42071,3.26817 -1.0906,6.47303 -1.98067,9.6441 -1.16998,4.06765 -1.45781,8.29213 -1.70033,12.49447 -0.18855,5.21123 -0.11443,10.42589 -0.15992,15.639 0.28794,5.03917 0.76243,10.07226 1.55685,15.05737 0.53077,5.29997 1.65664,10.48266 3.32542,15.5329 1.88513,6.14978 4.63285,11.88036 8.1708,17.23336 4.376,6.75891 9.93178,12.56392 15.81057,18.01318 5.85013,5.50094 12.50413,10.0656 19.38166,14.17551 7.16299,4.48095 14.99477,7.41518 22.96455,10.07296 8.73685,2.56809 17.60171,4.53221 26.63094,5.69386 5.57886,0.63958 11.19188,0.81913 16.80094,0.93359 0,0 -16.51996,11.9184 -16.51996,11.9184 l 0,0 c -5.59183,-0.26099 -11.19145,-0.51325 -16.74853,-1.22623 -9.09487,-1.31679 -18.06612,-3.3367 -26.86716,-5.9916 -8.09047,-2.73472 -16.04947,-5.82258 -23.32896,-10.36677 -6.93696,-4.25014 -13.62342,-8.95563 -19.54532,-14.55909 -6.01078,-5.56315 -11.52858,-11.61176 -16.27523,-18.30353 -3.62967,-5.49049 -6.4293,-11.38934 -8.54986,-17.62608 -1.78415,-5.12939 -2.97621,-10.39415 -3.58853,-15.79731 -0.77379,-5.10218 -1.2978,-10.22677 -1.62804,-15.37887 -0.0521,-5.22869 -0.0104,-10.45864 0.0814,-15.68666 0.0718,-4.30441 0.25788,-8.6364 1.32568,-12.82949 0.79259,-3.12486 1.72429,-6.20691 1.92286,-9.45047 0.46817,-2.63611 0.94347,-5.28504 1.64074,-7.85963 0.73783,-1.35411 1.53056,-2.47094 2.89265,-3.29207 8.10658,-4.88707 15.53942,-10.0247 24.12047,-13.61738 8.61922,-3.68909 17.30839,-7.23153 26.13193,-10.40502 8.56241,-3.21263 17.09175,-6.6533 26.1667,-8.15687 10.04956,-1.80415 20.19074,-2.60124 30.40915,-2.56531 10.7052,-0.0457 21.41085,-0.11666 32.11488,-0.28672 5.35651,-0.10606 10.77229,-0.52524 16.09789,0.21274 5.10673,1.23685 7.45618,4.13343 10.54316,8.26886 7.36045,9.63093 15.19866,18.91416 23.28594,27.93883 8.49454,9.82687 16.34583,20.14889 24.41308,30.32661 6.94662,9.16804 13.75375,18.44721 20.27474,27.92345 3.698,5.24371 7.50279,10.41046 11.13191,15.70265 2.06628,2.86048 4.1826,5.70899 6.69708,8.19747 0,0 -18.22115,10.81334 -18.22115,10.81334 z"
       inkscape:connector-curvature="0" />
    <path
       style="fill:none;stroke-width:2;stroke-miterlimit:4;stroke-dasharray:none"
       id="path4670"
       d="m 459.0123,512.64118 c -1.74039,-3.355 -4.09493,-6.35687 -6.21023,-9.48218 -2.50884,-3.93715 -4.95201,-7.91399 -7.44256,-11.86222 -3.21648,-4.89547 -5.78162,-10.13422 -7.91181,-15.57898 -2.71536,-6.97143 -4.81241,-14.1631 -6.63165,-21.41369 -1.46425,-6.95603 -2.82777,-13.95244 -3.5103,-21.03302 -0.51981,-6.33996 -0.71812,-12.70161 -0.79787,-19.06064 -0.14342,-5.19817 1.08567,-10.05337 3.05155,-14.81 2.24927,-5.55288 5.35267,-10.66269 8.68844,-15.61529 4.10361,-5.74081 8.8395,-10.99322 13.82964,-15.96929 5.24159,-4.74024 10.68881,-9.25093 16.31813,-13.52255 10.96013,-7.36146 22.24734,-14.28277 34.05877,-20.20615 4.98315,-2.38795 10.16301,-4.41331 15.43386,-6.07597 4.23223,-1.62743 8.63215,-2.84624 13.08522,-3.69593 5.48268,-1.5256 11.22396,-1.79569 16.8816,-2.02806 8.48284,-0.21534 16.97018,-0.14617 25.45505,-0.14796 9.91534,-0.0508 19.81871,0.007 29.72264,0.4872 7.96298,0.29067 15.65686,1.86174 23.27321,4.07407 4.894,1.47474 9.24969,4.0186 13.2757,7.10932 3.50131,2.46047 5.85123,5.92673 8.32241,9.32877 2.49752,3.40855 4.00124,7.36127 5.66196,11.20705 1.6944,3.62023 2.32145,7.54459 2.68151,11.4858 0.19214,3.4691 0.88523,6.87592 1.24136,10.32998 0.31133,3.21179 0.39361,6.43857 0.43922,9.66307 0.0466,2.95366 0.11838,5.89176 -0.3152,8.81927 -0.29868,2.76074 -0.98273,5.37557 -2.07843,7.91934 -0.90788,2.28142 -1.97722,4.4714 -2.76767,6.79817 -0.73534,2.07508 -1.76854,4.02675 -2.519,6.09201 -0.67974,2.0962 -1.56879,4.11234 -2.48227,6.11421 -0.75115,2.07903 -1.45648,4.18816 -2.41851,6.18165 -1.11653,2.43248 -2.57693,4.63537 -4.16625,6.77541 -1.41559,2.10471 -2.99645,4.07959 -4.56934,6.06487 -1.6722,2.01497 -3.16655,4.16882 -4.88392,6.14617 -1.37822,1.60903 -2.7969,3.19966 -4.34093,4.65263 -1.51804,1.60804 -3.11165,3.14882 -4.5902,4.79478 -1.30816,1.72492 -2.56523,3.49633 -4.04282,5.08205 -1.63129,1.7671 -3.22541,3.56102 -4.68774,5.4754 -1.37106,1.85642 -2.9836,3.51014 -4.45211,5.28252 -1.18907,1.75026 -2.6681,3.2775 -4.06869,4.8642 -1.56098,1.79864 -3.12191,3.57885 -4.83115,5.23909 -1.61161,1.64408 -3.12243,3.39275 -4.81109,4.9582 -1.65501,1.20459 -3.35174,2.36085 -4.8575,3.752 -1.5133,1.31866 -2.99524,2.69212 -4.36723,4.16025 -0.23944,0.22036 -0.47887,0.44073 -0.7183,0.66109 0,0 -19.50085,8.17296 -19.50085,8.17296 l 0,0 c 0.21662,-0.27541 0.43323,-0.55082 0.64985,-0.82623 1.59647,-1.24242 2.86763,-2.87539 4.32447,-4.26878 1.67661,-1.21396 3.05568,-2.78995 4.81232,-3.91354 2.09338,-1.03789 3.29172,-3.03885 5.03554,-4.5328 1.48677,-1.85956 3.48681,-3.24354 4.78379,-5.26679 1.4899,-1.47176 2.58921,-3.18695 4.20735,-4.50879 1.10788,-2.15274 3.0725,-3.55033 4.41412,-5.54763 1.60932,-1.74078 2.76917,-3.91493 4.61345,-5.43385 1.28824,-1.72684 2.91017,-3.1773 4.13512,-4.96652 1.13664,-1.92701 2.87923,-3.44717 4.45539,-4.9994 1.31466,-1.65782 3.00411,-2.99154 4.43422,-4.55017 1.57056,-2.09166 3.43059,-3.95536 4.90756,-6.12911 1.56863,-2.00624 3.28643,-3.87791 4.6237,-6.04863 1.58028,-2.03343 3.16499,-3.99705 4.25913,-6.34424 0.92866,-1.97351 1.9443,-3.92844 2.48753,-6.05093 0.69497,-2.05563 1.76888,-3.93931 2.57255,-5.95359 0.53338,-2.24257 1.65001,-4.14854 2.41961,-6.30118 0.57082,-1.10867 0.76393,-2.24892 1.24173,-3.39628 2.14574,-5.15257 -1.09264,2.85795 1.13005,-2.13264 0.1861,-0.41784 0.29047,-0.86748 0.4357,-1.30122 1.03227,-2.44104 2.19541,-4.76872 2.32581,-7.48147 0.5251,-2.82339 0.59408,-5.62328 0.49074,-8.49778 -0.0136,-3.17848 -0.0357,-6.36052 -0.28881,-9.53089 -0.32534,-3.47404 -1.06161,-6.89593 -1.21954,-10.38071 -0.26703,-3.73457 -0.76624,-7.46218 -2.32246,-10.91097 -1.585,-3.71262 -3.03179,-7.51039 -5.42717,-10.80451 -2.35696,-3.23316 -4.64984,-6.49356 -7.97843,-8.82806 -3.84617,-2.89998 -8.0149,-5.21714 -12.64789,-6.63156 -7.35422,-2.26803 -14.87199,-3.58317 -22.57358,-3.96378 -9.90682,-0.4805 -19.81359,-0.42364 -29.73024,-0.35944 -8.55916,0.0135 -17.12365,0.0204 -25.67457,0.44103 -5.70981,0.37839 -11.40788,0.94234 -16.94352,2.47529 -4.37087,1.02581 -8.68092,2.28276 -12.89408,3.84006 -5.14735,1.79621 -10.2794,3.69711 -15.11782,6.23077 -7.49904,3.93853 -4.85035,2.59756 12.15,-7.23727 0.95532,-0.55266 -1.90517,1.11565 -2.83684,1.70731 -2.7495,1.74608 -5.38396,3.67911 -8.22392,5.2845 -5.72871,4.1584 -11.18145,8.66784 -16.52232,13.31196 -5.05577,4.78768 -9.73357,9.98784 -13.91302,15.56096 -3.33126,4.78877 -6.44239,9.75522 -8.69842,15.15434 -1.90622,4.55511 -3.50497,9.05943 -3.46744,14.08917 0.0167,6.32772 0.006,12.66444 0.55133,18.97443 0.729,6.99418 1.84949,13.94483 3.24081,20.83668 1.81171,7.14773 3.93317,14.23347 6.65101,21.09329 2.15941,5.28929 4.76823,10.36672 7.94759,15.12299 2.48227,3.9195 5.00145,7.81529 7.41002,11.78075 2.24718,3.17373 4.62935,6.25362 6.75766,9.50919 0,0 -18.43473,10.49644 -18.43473,10.49644 z"
       inkscape:connector-curvature="0" />
    <text
       xml:space="preserve"
       style="font-style:normal;font-weight:normal;line-height:0%;font-family:sans-serif;letter-spacing:0px;word-spacing:0px;fill:#000000;fill-opacity:1;stroke:none;stroke-width:1px;stroke-linecap:butt;stroke-linejoin:miter;stroke-opacity:1"
       x="385.55109"
       y="416.97855"
       id="text4534-1"><tspan
         sodipodi:role="line"
         id="tspan4536-2"
         x="385.55109"
         y="416.97855"
         style="font-size:30px;line-height:1.25">post-processing</tspan></text>
    <path
       style="fill:none;fill-rule:evenodd;stroke:#000000;stroke-width:1.66205835;stroke-linecap:butt;stroke-linejoin:miter;stroke-miterlimit:4;stroke-dasharray:none;stroke-opacity:1;marker-end:url(#Arrow1Lend-7)"
       d="m 646,586.3622 138.12189,0"
       id="path4210-9"
       inkscape:connector-curvature="0" />
    <text
       xml:space="preserve"
       style="font-style:normal;font-weight:normal;line-height:0%;font-family:sans-serif;letter-spacing:0px;word-spacing:0px;fill:#000000;fill-opacity:1;stroke:none;stroke-width:1px;stroke-linecap:butt;stroke-linejoin:miter;stroke-opacity:1"
       x="652"
       y="564.36218"
       id="text4534-3"><tspan
         sodipodi:role="line"
         id="tspan4536-6"
         x="652"
         y="564.36218"
         style="font-size:30px;line-height:1.25">analysis</tspan></text>
    <text
       xml:space="preserve"
       style="font-style:normal;font-weight:normal;font-size:19.6851902px;line-height:0%;font-family:sans-serif;letter-spacing:0px;word-spacing:0px;fill:#000000;fill-opacity:1;stroke:none;stroke-width:1.64043248px;stroke-linecap:butt;stroke-linejoin:miter;stroke-opacity:1"
       x="2004.4302"
       y="278.03452"
       id="text6419"
       transform="scale(0.39140408,2.5549044)"><tspan
         sodipodi:role="line"
         id="tspan6421"
         x="2004.4302"
         y="278.03452"
         style="font-size:155.35221863px;line-height:1.25;stroke-width:1.64043248px">{</tspan></text>
    <text
       xml:space="preserve"
       style="font-style:normal;font-weight:normal;line-height:0%;font-family:sans-serif;letter-spacing:0px;word-spacing:0px;fill:#000000;fill-opacity:1;stroke:none;stroke-width:1px;stroke-linecap:butt;stroke-linejoin:miter;stroke-opacity:1"
       x="823.21429"
       y="468.32648"
       id="text6531"><tspan
         sodipodi:role="line"
         x="823.21429"
         y="468.32648"
         style="font-size:30px;line-height:1.25"
         id="tspan65">- visualization* (2)</tspan><tspan
         sodipodi:role="line"
         x="823.21429"
         y="505.82648"
         style="font-size:30px;line-height:1.25"
         id="tspan71">- track description (5)</tspan><tspan
         sodipodi:role="line"
         x="823.21429"
         y="543.32648"
         style="font-size:30px;line-height:1.25"
         id="tspan69">- path reconstruction (9)</tspan><tspan
         sodipodi:role="line"
         x="823.21429"
         y="580.82648"
         id="tspan6535"
         style="font-size:30px;line-height:1.25">- behavioral pattern </tspan><tspan
         sodipodi:role="line"
         x="823.21429"
         y="618.32648"
         style="font-size:30px;line-height:1.25"
         id="tspan6553">  identification (9)</tspan><tspan
         sodipodi:role="line"
         x="823.21429"
         y="655.82648"
         id="tspan6539"
         style="font-size:30px;line-height:1.25">- space use (17)</tspan><tspan
         sodipodi:role="line"
         x="823.21429"
         y="693.32648"
         id="tspan6543"
         style="font-size:30px;line-height:1.25">- trajectory simulation (10)</tspan><tspan
         sodipodi:role="line"
         x="823.21429"
         y="730.82648"
         id="tspan6545"
         style="font-size:30px;line-height:1.25">- others (8)</tspan></text>
    <text
       xml:space="preserve"
       style="font-style:normal;font-weight:normal;font-size:37.5px;line-height:1.25;font-family:sans-serif;letter-spacing:0px;word-spacing:0px;fill:#000000;fill-opacity:1;stroke:none;stroke-width:0.9375"
       x="275.625"
       y="619.23718"
       id="text884"><tspan
         sodipodi:role="line"
         id="tspan882"
         x="275.625"
         y="619.23718"
         style="font-size:30px;stroke-width:0.9375">(9)</tspan></text>
    <text
       xml:space="preserve"
       style="font-style:normal;font-weight:normal;font-size:37.5px;line-height:1.25;font-family:sans-serif;letter-spacing:0px;word-spacing:0px;fill:#000000;fill-opacity:1;stroke:none;stroke-width:0.9375"
       x="635.05109"
       y="417.72855"
       id="text884-3"><tspan
         sodipodi:role="line"
         id="tspan882-6"
         x="635.05109"
         y="417.72855"
         style="font-size:30px;stroke-width:0.9375">(16)</tspan></text>
    <path
       style="fill:none;stroke:#000000;stroke-width:2.93206906;stroke-linecap:butt;stroke-linejoin:miter;stroke-miterlimit:4;stroke-dasharray:none;stroke-opacity:1;marker-end:url(#Arrow2Mend)"
       d="m 468.83111,508.61221 c 56.20945,-152.94634 112.41889,0 112.41889,0"
       id="path889"
       inkscape:connector-curvature="0"
       sodipodi:nodetypes="cc" />
  </g>
</svg>
